<?xml version="1.0"?>
<svg xmlns="http://www.w3.org/2000/svg" xmlns:xlink="http://www.w3.org/1999/xlink" xmlns:svgjs="http://svgjs.com/svgjs" version="1.1" width="512" height="512" x="0" y="0" viewBox="0 0 512 512" style="enable-background:new 0 0 512 512" xml:space="preserve" class=""><g><g xmlns="http://www.w3.org/2000/svg" id="Outline"><polygon points="480 408 432 408 432 384 416 384 416 496 432 496 432 424 480 424 480 496 496 496 496 384 480 384 480 408" fill="#fac564" data-original="#000000" style="" class=""/><path d="M352.575,353.231l27.847,13.924A8,8,0,0,0,392,360V314.056l56.99,13.149A39.825,39.825,0,0,1,480,366.18h16a55.753,55.753,0,0,0-43.411-54.565l-65.862-15.2L376,291.056v-33.31A88.327,88.327,0,0,0,416,184a32,32,0,0,0,0-64V72a56.063,56.063,0,0,0-56-56H296a55.9,55.9,0,0,0-37.335,14.261l10.67,11.922A39.935,39.935,0,0,1,296,32h64a40.045,40.045,0,0,1,40,40V84.9l-7.112-2.371a205.192,205.192,0,0,0-129.776,0L256,84.9V72a39.961,39.961,0,0,1,5.347-19.994L247.5,43.994A55.989,55.989,0,0,0,240,72v48a32,32,0,0,0,0,64h16V130.825A33.785,33.785,0,0,0,274,136a80.358,80.358,0,0,0,29.973-5.772,64.427,64.427,0,0,1,48.057,0A80.349,80.349,0,0,0,382,136a33.785,33.785,0,0,0,18-5.175V184a71.98,71.98,0,0,1-123.413,50.4l-11.424,11.2A88.358,88.358,0,0,0,280,257.745v33.311l-10.961,5.48L256,300.449V208a8,8,0,0,0-8-8H24a8,8,0,0,0-8,8v8H65.376a24,24,0,0,0,45.248,0H144v32H32V232H16v72a8,8,0,0,0,8,8H64.805A40.067,40.067,0,0,0,104,344h24V455.107A40.94,40.94,0,0,0,168.893,496c.548,0,27.107,1,38.911-24.571L224,433.541V496h16V392a8,8,0,0,0-15.428-2.971l-12.586,31.464-8.445-4.825-11.695-67.245a40.011,40.011,0,0,1,23.574-19.09L264,314.754V360a8,8,0,0,0,11.578,7.155l27.847-13.924L320,364.281V424h16V364.281ZM240,168a16,16,0,0,1,0-32Zm192-16a16.019,16.019,0,0,1-16,16V136A16.019,16.019,0,0,1,432,152Zm-50-32c-18.632,0-35.164-10.426-54-10.426S292.709,120,274,120a18.019,18.019,0,0,1-18-18v-.235l12.173-4.058a189.2,189.2,0,0,1,119.654,0L400,101.766V102A18.019,18.019,0,0,1,382,120Zm-6,227.056-20.422-10.211a7.993,7.993,0,0,0-3.151-.834l18.5-29.6L376,308.944Zm-16-81.082v27.731l-32,51.2-32-51.2V265.974a87.978,87.978,0,0,0,64,0ZM160,296V264h80v32Zm80-80v32H160V216ZM32,264H65.376a24,24,0,0,0,45.248,0H144v32H32ZM144,455.107V336a8,8,0,0,0-8-8H104a24.042,24.042,0,0,1-22.629-16h87.9l24.147,138.842A24.893,24.893,0,1,1,144,455.107Zm66.82-141.1a56.049,56.049,0,0,0-22.66,13.221L185.511,312h32Zm89.6,22.837L280,347.056V308.944l5.071-2.535,18.5,29.6A7.993,7.993,0,0,0,300.422,336.845Z" fill="#fac564" data-original="#000000" style="" class=""/><rect x="288" y="376" width="16" height="16" fill="#fac564" data-original="#000000" style="" class=""/><circle cx="368" cy="152" r="16" fill="#fac564" data-original="#000000" style="" class=""/><circle cx="288" cy="152" r="16" fill="#fac564" data-original="#000000" style="" class=""/><path d="M347.981,193.065A66.019,66.019,0,0,1,318.6,200H312v16h6.6a82.1,82.1,0,0,0,36.534-8.625l.44-.22-7.156-14.31Z" fill="#fac564" data-original="#000000" style="" class=""/><rect x="352" y="432" width="48" height="16" fill="#fac564" data-original="#000000" style="" class=""/></g></g></svg>
