<?xml version="1.0"?>
<svg xmlns="http://www.w3.org/2000/svg" xmlns:xlink="http://www.w3.org/1999/xlink" xmlns:svgjs="http://svgjs.com/svgjs" version="1.1" width="512" height="512" x="0" y="0" viewBox="0 0 511.999 511.999" style="enable-background:new 0 0 512 512" xml:space="preserve" class=""><g>
<g xmlns="http://www.w3.org/2000/svg">
	<g>
		<path d="M242.007,346.997H131.843c-5.523,0-10,4.477-10,10s4.477,10,10,10h110.164c5.523,0,10-4.477,10-10    S247.53,346.997,242.007,346.997z" fill="#ffffff" data-original="#000000" style="" class=""/>
	</g>
</g>
<g xmlns="http://www.w3.org/2000/svg">
	<g>
		<path d="M92.011,346.997h-0.948c-5.523,0-10,4.477-10,10s4.477,10,10,10h0.948c5.523,0,10-4.477,10-10    S97.534,346.997,92.011,346.997z" fill="#ffffff" data-original="#000000" style="" class=""/>
	</g>
</g>
<g xmlns="http://www.w3.org/2000/svg">
	<g>
		<path d="M396.959,144.781c-1.142-30.095-25.611-54.565-55.706-55.708c-15.938-0.608-31.012,5.138-42.471,16.17    c-11.464,11.037-17.778,25.876-17.778,41.787c0,5.523,4.477,10,10,10s10-4.477,10-10c0-10.424,4.137-20.146,11.649-27.378    c7.507-7.228,17.392-10.992,27.841-10.593c19.708,0.749,35.731,16.773,36.48,36.481c0.64,16.852-10.069,32.306-26.041,37.582    c-13.117,4.333-21.929,16.393-21.929,30.009v15.87c0,5.523,4.477,10,10,10s10-4.477,10-10v-15.87    c0-4.971,3.296-9.399,8.202-11.019C381.588,194.059,397.935,170.483,396.959,144.781z" fill="#ffffff" data-original="#000000" style="" class=""/>
	</g>
</g>
<g xmlns="http://www.w3.org/2000/svg">
	<g>
		<path d="M346.077,257.009c-1.87-1.86-4.44-2.93-7.07-2.93s-5.21,1.07-7.07,2.93c-1.87,1.86-2.93,4.44-2.93,7.07    s1.06,5.21,2.93,7.07c1.86,1.86,4.43,2.93,7.07,2.93c2.63,0,5.21-1.07,7.07-2.93c1.86-1.86,2.93-4.44,2.93-7.07    S347.937,258.869,346.077,257.009z" fill="#ffffff" data-original="#000000" style="" class=""/>
	</g>
</g>
<g xmlns="http://www.w3.org/2000/svg">
	<g>
		<path d="M384.254,27.005h-90.501c-67.837,0-123.484,53.153-127.504,119.997h-38.505C57.307,147.002,0,204.308,0,274.748v50.502    c0,41.756,20.086,80.352,54.012,104.328v45.417c0,3.311,1.639,6.407,4.376,8.269c1.683,1.145,3.646,1.731,5.625,1.731    c1.24,0,2.487-0.231,3.673-0.7l79.227-31.299h71.333c67.837,0,123.484-53.153,127.504-119.997h19.724l78.854,31.152    c1.187,0.469,2.433,0.7,3.673,0.7c1.979,0,3.942-0.587,5.625-1.731c2.737-1.862,4.376-4.958,4.376-8.269v-45.279    c33.914-23.978,53.999-62.572,53.999-104.318v-50.502C512,84.311,454.693,27.005,384.254,27.005z M218.245,432.995h-73.237    c-1.258,0-2.504,0.237-3.674,0.7L74.01,460.292v-35.686c0.114-3.431-1.548-6.788-4.576-8.74C38.48,395.902,20,362.026,20,325.249    v-50.502c0-59.411,48.335-107.746,107.746-107.746h38.263v38.25c0,11.679,1.584,22.992,4.533,33.748H92.011    c-5.523,0-10,4.477-10,10c0,5.523,4.477,10,10,10h85.873c5.856,12.573,13.694,24.042,23.118,33.999H92.011    c-5.523,0-10,4.477-10,10c0,5.523,4.477,10,10,10h133.186c19.82,12.656,43.347,20,68.557,20h31.957    C321.726,388.806,275.051,432.995,218.245,432.995z M492.001,205.252L492.001,205.252c-0.001,36.77-18.475,70.641-49.421,90.607    c-2.854,1.841-4.579,5.006-4.579,8.403v35.886l-66.95-26.449c-1.17-0.462-2.417-0.7-3.674-0.7h-73.623    c-59.411,0-107.746-48.335-107.746-107.746v-50.502c0-59.412,48.335-107.746,107.746-107.746h90.501    c59.411,0,107.746,48.335,107.746,107.746V205.252z" fill="#ffffff" data-original="#000000" style="" class=""/>
	</g>
</g>
<g xmlns="http://www.w3.org/2000/svg">
</g>
<g xmlns="http://www.w3.org/2000/svg">
</g>
<g xmlns="http://www.w3.org/2000/svg">
</g>
<g xmlns="http://www.w3.org/2000/svg">
</g>
<g xmlns="http://www.w3.org/2000/svg">
</g>
<g xmlns="http://www.w3.org/2000/svg">
</g>
<g xmlns="http://www.w3.org/2000/svg">
</g>
<g xmlns="http://www.w3.org/2000/svg">
</g>
<g xmlns="http://www.w3.org/2000/svg">
</g>
<g xmlns="http://www.w3.org/2000/svg">
</g>
<g xmlns="http://www.w3.org/2000/svg">
</g>
<g xmlns="http://www.w3.org/2000/svg">
</g>
<g xmlns="http://www.w3.org/2000/svg">
</g>
<g xmlns="http://www.w3.org/2000/svg">
</g>
<g xmlns="http://www.w3.org/2000/svg">
</g>
</g></svg>
